<svg width="209" height="50" viewBox="0 0 209 50" fill="none" xmlns="http://www.w3.org/2000/svg">
<path d="M28.2594 34.4693C27.2607 34.4693 26.3633 33.8593 25.9959 32.9307L24.5358 29.2407C24.1683 28.312 23.271 27.702 22.2723 27.702H12.2755C11.2601 27.702 10.3514 28.3323 9.99557 29.2834L8.64709 32.888C8.2913 33.839 7.38255 34.4693 6.36713 34.4693H2.66095C0.921392 34.4693 -0.256736 32.6975 0.416183 31.0934L12.8335 1.49262C13.2128 0.588368 14.0976 0 15.0782 0H19.9164C20.9002 0 21.7873 0.592157 22.1646 1.50072L34.4564 31.1015C35.1221 32.7046 33.9441 34.4693 32.2083 34.4693H28.2594ZM19.6176 15.4509C18.8454 13.3186 15.8337 13.3077 15.046 15.4343L14.1875 17.7524C13.5986 19.3423 14.7748 21.0321 16.4702 21.0321H18.1682C19.8562 21.0321 21.0318 19.3561 20.457 17.769L19.6176 15.4509Z" fill="#647B64"/>
<path d="M67.9874 36.076C67.9874 38.1532 67.6303 40.0519 66.9163 41.7722C66.2347 43.4599 65.2447 44.9205 63.9465 46.1538C62.6482 47.3548 61.074 48.296 59.224 48.9776C57.4064 49.6592 55.3778 50 53.1383 50C50.8663 50 48.8215 49.6592 47.0039 48.9776C45.1863 48.296 43.6446 47.3548 42.3788 46.1538C41.113 44.9205 40.1392 43.4599 39.4577 41.7722C38.7761 40.0519 38.4353 38.1532 38.4353 36.076V25.9495C38.4353 24.605 37.3454 23.5152 36.001 23.5152H28.2981C27.21 23.5152 26.254 22.7931 25.9566 21.7464L24.808 17.7054C24.3662 16.1511 25.5337 14.6056 27.1496 14.6056H44.2775C45.6219 14.6056 46.7118 15.6955 46.7118 17.0399V35.3944C46.7118 36.3356 46.8254 37.2282 47.0526 38.0721C47.3122 38.9159 47.6855 39.6787 48.1724 40.3603C48.6917 41.0094 49.357 41.5287 50.1685 41.9182C51.0123 42.3077 52.0185 42.5024 53.187 42.5024C54.3554 42.5024 55.3454 42.3077 56.1568 41.9182C57.0007 41.5287 57.6823 41.0094 58.2016 40.3603C58.7209 39.6787 59.0941 38.9159 59.3213 38.0721C59.5485 37.2282 59.6621 36.3356 59.6621 35.3944V17.0399C59.6621 15.6955 60.752 14.6056 62.0964 14.6056H65.5531C66.8975 14.6056 67.9874 15.6955 67.9874 17.0399V36.076Z" fill="#647B64"/>
<path d="M85.726 19.3576C85.9896 18.7518 86.5873 18.36 87.2479 18.36C87.9107 18.36 88.5099 18.7543 88.7721 19.363L93.6501 30.6863C94.0237 31.5536 93.3877 32.52 92.4434 32.52C91.9092 32.52 91.4282 32.1966 91.2267 31.7019L90.9 30.9C90.5009 29.9204 89.5485 29.28 88.4907 29.28H85.8418C84.7907 29.28 83.8462 29.9223 83.46 30.9L83.1395 31.7113C82.9467 32.1993 82.4752 32.52 81.9504 32.52C81.0296 32.52 80.4107 31.5759 80.7781 30.7315L85.726 19.3576ZM87.1671 27.12C88.2267 27.12 88.9588 26.0601 88.5838 25.0691C88.0916 23.7686 86.2538 23.763 85.7538 25.0605C85.3713 26.0528 86.1037 27.12 87.1671 27.12Z" fill="#647B64"/>
<path d="M94.6577 20.0392C94.4123 19.1998 95.0417 18.36 95.9162 18.36C96.5117 18.36 97.0325 18.7613 97.1842 19.3372L99.6615 28.7403C99.6646 28.7519 99.6751 28.76 99.6871 28.76C99.6987 28.76 99.709 28.7524 99.7124 28.7412L102.454 19.6017C102.675 18.8647 103.354 18.36 104.123 18.36C104.896 18.36 105.577 18.8691 105.795 19.6106L108.481 28.741C108.484 28.7523 108.495 28.76 108.506 28.76C108.518 28.76 108.529 28.752 108.532 28.7405L111.073 19.3041C111.223 18.7471 111.728 18.36 112.304 18.36C113.155 18.36 113.768 19.1771 113.529 19.9938L110.212 31.3377C110.008 32.0384 109.365 32.52 108.635 32.52C107.916 32.52 107.281 32.0529 107.066 31.3669L104.113 21.9191C104.109 21.9077 104.099 21.9 104.087 21.9C104.075 21.9 104.064 21.9077 104.061 21.9191L101.107 31.3669C100.893 32.0529 100.257 32.52 99.5385 32.52C98.8085 32.52 98.1659 32.0384 97.961 31.3377L94.6577 20.0392Z" fill="#647B64"/>
<path d="M115.685 21.36C115.685 19.7031 117.028 18.36 118.685 18.36H123.965C124.572 18.36 125.065 18.8525 125.065 19.46C125.065 20.0675 124.572 20.56 123.965 20.56H120.005C119.011 20.56 118.205 21.3659 118.205 22.36C118.205 23.3541 119.011 24.16 120.005 24.16H123.645C124.23 24.16 124.705 24.6346 124.705 25.22C124.705 25.8054 124.23 26.28 123.645 26.28H120.205C119.1 26.28 118.205 27.1754 118.205 28.28C118.205 29.3846 119.1 30.28 120.205 30.28H124.305C124.923 30.28 125.425 30.7814 125.425 31.4C125.425 32.0186 124.923 32.52 124.305 32.52H118.685C117.028 32.52 115.685 31.1769 115.685 29.52V21.36Z" fill="#647B64"/>
<path d="M136.008 20.3367C135.541 20.8494 134.695 20.8143 134.073 20.5081C134.04 20.4918 134.006 20.4757 133.972 20.46C133.492 20.22 133.005 20.1 132.512 20.1C132.219 20.1 131.925 20.14 131.632 20.22C131.339 20.2867 131.072 20.4 130.832 20.56C130.592 20.7067 130.392 20.9067 130.232 21.16C130.085 21.4 130.012 21.6933 130.012 22.04C130.012 22.36 130.079 22.6333 130.212 22.86C130.345 23.0867 130.525 23.28 130.752 23.44C130.992 23.6 131.279 23.74 131.612 23.86C131.945 23.98 132.312 24.1 132.712 24.22C133.165 24.3667 133.632 24.5333 134.112 24.72C134.605 24.9067 135.052 25.1533 135.452 25.46C135.865 25.7667 136.199 26.1533 136.452 26.62C136.719 27.0867 136.852 27.6667 136.852 28.36C136.852 29.12 136.712 29.7867 136.432 30.36C136.152 30.92 135.779 31.3867 135.312 31.76C134.845 32.1333 134.299 32.4133 133.672 32.6C133.045 32.7867 132.385 32.88 131.692 32.88C130.772 32.88 129.872 32.7133 128.992 32.38C128.49 32.1824 128.041 31.9329 127.643 31.6313C127.142 31.2514 127.192 30.5236 127.652 30.0946C128.172 29.6091 129.004 29.7087 129.604 30.0916C129.733 30.1739 129.869 30.2501 130.012 30.32C130.599 30.6 131.172 30.74 131.732 30.74C132.025 30.74 132.325 30.7067 132.632 30.64C132.939 30.56 133.212 30.4333 133.452 30.26C133.705 30.0867 133.905 29.8733 134.052 29.62C134.212 29.3533 134.292 29.0267 134.292 28.64C134.292 28.2667 134.205 27.96 134.032 27.72C133.859 27.4667 133.625 27.2533 133.332 27.08C133.039 26.8933 132.692 26.7333 132.292 26.6C131.892 26.4667 131.472 26.3267 131.032 26.18C130.605 26.0467 130.179 25.8867 129.752 25.7C129.325 25.5133 128.939 25.2667 128.592 24.96C128.259 24.6533 127.985 24.28 127.772 23.84C127.559 23.3867 127.452 22.8267 127.452 22.16C127.452 21.44 127.599 20.82 127.892 20.3C128.199 19.78 128.592 19.3533 129.072 19.02C129.565 18.6733 130.119 18.42 130.732 18.26C131.359 18.0867 131.992 18 132.632 18C133.352 18 134.079 18.1267 134.812 18.38C135.189 18.5081 135.541 18.6685 135.868 18.8613C136.394 19.1724 136.42 19.8845 136.008 20.3367Z" fill="#647B64"/>
<path d="M138.696 25.4C138.696 24.2667 138.883 23.2467 139.256 22.34C139.643 21.42 140.17 20.64 140.836 20C141.516 19.36 142.316 18.8667 143.236 18.52C144.17 18.1733 145.183 18 146.276 18C147.383 18 148.403 18.1733 149.336 18.52C150.27 18.8667 151.076 19.36 151.756 20C152.436 20.64 152.963 21.42 153.336 22.34C153.723 23.2467 153.916 24.2667 153.916 25.4C153.916 26.5067 153.723 27.52 153.336 28.44C152.963 29.3467 152.436 30.1333 151.756 30.8C151.076 31.4533 150.27 31.9667 149.336 32.34C148.403 32.7 147.383 32.88 146.276 32.88C145.183 32.88 144.17 32.7 143.236 32.34C142.316 31.9667 141.516 31.4533 140.836 30.8C140.17 30.1333 139.643 29.3467 139.256 28.44C138.883 27.52 138.696 26.5067 138.696 25.4ZM141.436 25.4C141.436 26.16 141.55 26.86 141.776 27.5C142.016 28.1267 142.35 28.6733 142.776 29.14C143.216 29.6067 143.73 29.9733 144.316 30.24C144.916 30.4933 145.576 30.62 146.296 30.62C147.016 30.62 147.676 30.4933 148.276 30.24C148.876 29.9733 149.39 29.6067 149.816 29.14C150.256 28.6733 150.59 28.1267 150.816 27.5C151.056 26.86 151.176 26.16 151.176 25.4C151.176 24.6667 151.056 23.9867 150.816 23.36C150.59 22.7333 150.263 22.1867 149.836 21.72C149.41 21.2533 148.896 20.8867 148.296 20.62C147.696 20.3533 147.03 20.22 146.296 20.22C145.563 20.22 144.896 20.3533 144.296 20.62C143.71 20.8867 143.203 21.2533 142.776 21.72C142.35 22.1867 142.016 22.7333 141.776 23.36C141.55 23.9867 141.436 24.6667 141.436 25.4Z" fill="#647B64"/>
<path d="M156.349 20.679C156.349 19.3983 157.387 18.36 158.668 18.36C159.641 18.36 160.511 18.9681 160.846 19.8823L163.959 28.3919C163.965 28.4088 163.981 28.42 163.999 28.42C164.017 28.42 164.033 28.4087 164.039 28.3917L167.113 19.8954C167.447 18.9739 168.322 18.36 169.302 18.36C170.587 18.36 171.629 19.4019 171.629 20.6872V31.27C171.629 31.9604 171.069 32.52 170.379 32.52C169.689 32.52 169.129 31.9604 169.129 31.27V21.1636C169.129 21.1506 169.118 21.14 169.105 21.14C169.095 21.14 169.087 21.1461 169.083 21.1553L165.099 31.6988C164.912 32.193 164.439 32.52 163.911 32.52C163.381 32.52 162.906 32.1904 162.721 31.6933L158.795 21.1554C158.791 21.1461 158.782 21.14 158.773 21.14C158.759 21.14 158.749 21.1506 158.749 21.1636V31.32C158.749 31.9827 158.212 32.52 157.549 32.52C156.886 32.52 156.349 31.9827 156.349 31.32V20.679Z" fill="#647B64"/>
<path d="M174.747 21.36C174.747 19.7031 176.09 18.36 177.747 18.36H183.027C183.635 18.36 184.127 18.8525 184.127 19.46C184.127 20.0675 183.635 20.56 183.027 20.56H179.067C178.073 20.56 177.267 21.3659 177.267 22.36C177.267 23.3541 178.073 24.16 179.067 24.16H182.707C183.293 24.16 183.767 24.6346 183.767 25.22C183.767 25.8054 183.293 26.28 182.707 26.28H179.267C178.163 26.28 177.267 27.1754 177.267 28.28C177.267 29.3846 178.163 30.28 179.267 30.28H183.367C183.986 30.28 184.487 30.7814 184.487 31.4C184.487 32.0186 183.986 32.52 183.367 32.52H177.747C176.091 32.52 174.747 31.1769 174.747 29.52V21.36Z" fill="#647B64"/>
<path d="M203.234 27.32C203.234 28.1733 203.088 28.9467 202.794 29.64C202.501 30.32 202.101 30.9 201.594 31.38C201.088 31.86 200.488 32.2333 199.794 32.5C199.101 32.7533 198.348 32.88 197.534 32.88C196.721 32.88 195.968 32.7533 195.274 32.5C194.581 32.2333 193.974 31.86 193.454 31.38C192.948 30.9 192.548 30.32 192.254 29.64C191.974 28.9467 191.834 28.1733 191.834 27.32V19.62C191.834 18.9241 192.399 18.36 193.094 18.36C193.79 18.36 194.354 18.9241 194.354 19.62V27.22C194.354 27.6333 194.408 28.0467 194.514 28.46C194.621 28.86 194.794 29.22 195.034 29.54C195.288 29.86 195.614 30.12 196.014 30.32C196.428 30.52 196.934 30.62 197.534 30.62C198.134 30.62 198.634 30.52 199.034 30.32C199.448 30.12 199.774 29.86 200.014 29.54C200.268 29.22 200.448 28.86 200.554 28.46C200.661 28.0467 200.714 27.6333 200.714 27.22V19.62C200.714 18.9241 201.279 18.36 201.974 18.36C202.67 18.36 203.234 18.9241 203.234 19.62V27.32Z" fill="#647B64"/>
<path d="M206.232 19.62C206.232 18.9241 206.796 18.36 207.492 18.36C208.188 18.36 208.752 18.9241 208.752 19.62V31.26C208.752 31.9559 208.188 32.52 207.492 32.52C206.796 32.52 206.232 31.9559 206.232 31.26V19.62Z" fill="#647B64"/>
</svg>
